<mxfile host="Electron" modified="2024-03-21T13:15:32.124Z" agent="Mozilla/5.0 (Windows NT 10.0; Win64; x64) AppleWebKit/537.36 (KHTML, like Gecko) draw.io/23.1.5 Chrome/120.0.6099.109 Electron/28.1.0 Safari/537.36" etag="iL-nP0MejhizgdJc7bTQ" version="23.1.5" type="device">
  <diagram name="Page-1" id="vBAKHfD4ZJd4HT_qLLMz">
    <mxGraphModel dx="2445" dy="1858" grid="1" gridSize="10" guides="1" tooltips="1" connect="1" arrows="1" fold="1" page="1" pageScale="1" pageWidth="850" pageHeight="1100" math="0" shadow="0">
      <root>
        <mxCell id="0" />
        <mxCell id="1" parent="0" />
        <mxCell id="qoyEa4kxbC41t2mxPIMF-14" value="&lt;u&gt;&lt;b&gt;Users&lt;br&gt;&lt;/b&gt;&lt;/u&gt;" style="rounded=0;whiteSpace=wrap;html=1;" parent="1" vertex="1">
          <mxGeometry x="465" y="165" width="120" height="30" as="geometry" />
        </mxCell>
        <mxCell id="qoyEa4kxbC41t2mxPIMF-15" value="Name" style="ellipse;whiteSpace=wrap;html=1;" parent="1" vertex="1">
          <mxGeometry x="425" y="-20" width="130" height="40" as="geometry" />
        </mxCell>
        <mxCell id="qoyEa4kxbC41t2mxPIMF-17" value="Customer ID" style="ellipse;whiteSpace=wrap;html=1;" parent="1" vertex="1">
          <mxGeometry x="585" y="-10" width="130" height="40" as="geometry" />
        </mxCell>
        <mxCell id="qoyEa4kxbC41t2mxPIMF-18" value="Phone Number" style="ellipse;whiteSpace=wrap;html=1;" parent="1" vertex="1">
          <mxGeometry x="720" y="225" width="130" height="40" as="geometry" />
        </mxCell>
        <mxCell id="qoyEa4kxbC41t2mxPIMF-19" value="Email" style="ellipse;whiteSpace=wrap;html=1;" parent="1" vertex="1">
          <mxGeometry x="290" y="10" width="130" height="40" as="geometry" />
        </mxCell>
        <mxCell id="qoyEa4kxbC41t2mxPIMF-21" value="" style="endArrow=none;html=1;rounded=0;entryX=0.5;entryY=1;entryDx=0;entryDy=0;exitX=0.75;exitY=0;exitDx=0;exitDy=0;" parent="1" source="qoyEa4kxbC41t2mxPIMF-14" target="qoyEa4kxbC41t2mxPIMF-17" edge="1">
          <mxGeometry width="50" height="50" relative="1" as="geometry">
            <mxPoint x="590" y="160" as="sourcePoint" />
            <mxPoint x="615" y="80" as="targetPoint" />
          </mxGeometry>
        </mxCell>
        <mxCell id="qoyEa4kxbC41t2mxPIMF-22" value="" style="endArrow=none;html=1;rounded=0;entryX=0.25;entryY=0;entryDx=0;entryDy=0;exitX=0.5;exitY=1;exitDx=0;exitDy=0;" parent="1" source="qoyEa4kxbC41t2mxPIMF-15" target="qoyEa4kxbC41t2mxPIMF-14" edge="1">
          <mxGeometry width="50" height="50" relative="1" as="geometry">
            <mxPoint x="395" y="140" as="sourcePoint" />
            <mxPoint x="445" y="90" as="targetPoint" />
          </mxGeometry>
        </mxCell>
        <mxCell id="qoyEa4kxbC41t2mxPIMF-23" value="" style="endArrow=none;html=1;rounded=0;entryX=0;entryY=0;entryDx=0;entryDy=0;exitX=0.5;exitY=1;exitDx=0;exitDy=0;" parent="1" source="qoyEa4kxbC41t2mxPIMF-19" target="qoyEa4kxbC41t2mxPIMF-14" edge="1">
          <mxGeometry width="50" height="50" relative="1" as="geometry">
            <mxPoint x="405" y="205" as="sourcePoint" />
            <mxPoint x="455" y="155" as="targetPoint" />
          </mxGeometry>
        </mxCell>
        <mxCell id="qoyEa4kxbC41t2mxPIMF-24" value="" style="endArrow=none;html=1;rounded=0;entryX=1;entryY=1;entryDx=0;entryDy=0;exitX=0.5;exitY=0;exitDx=0;exitDy=0;" parent="1" source="qoyEa4kxbC41t2mxPIMF-18" target="qoyEa4kxbC41t2mxPIMF-14" edge="1">
          <mxGeometry width="50" height="50" relative="1" as="geometry">
            <mxPoint x="475" y="270" as="sourcePoint" />
            <mxPoint x="525" y="220" as="targetPoint" />
          </mxGeometry>
        </mxCell>
        <mxCell id="qoyEa4kxbC41t2mxPIMF-25" value="Address" style="ellipse;whiteSpace=wrap;html=1;" parent="1" vertex="1">
          <mxGeometry x="700" y="90" width="140" height="40" as="geometry" />
        </mxCell>
        <mxCell id="qoyEa4kxbC41t2mxPIMF-26" value="" style="endArrow=none;html=1;rounded=0;exitX=0;exitY=0.5;exitDx=0;exitDy=0;entryX=1;entryY=0.5;entryDx=0;entryDy=0;" parent="1" source="qoyEa4kxbC41t2mxPIMF-25" target="qoyEa4kxbC41t2mxPIMF-14" edge="1">
          <mxGeometry width="50" height="50" relative="1" as="geometry">
            <mxPoint x="515" y="270" as="sourcePoint" />
            <mxPoint x="590" y="180" as="targetPoint" />
          </mxGeometry>
        </mxCell>
        <mxCell id="qoyEa4kxbC41t2mxPIMF-27" value="&lt;b&gt;&lt;u&gt;Packages&lt;/u&gt;&lt;/b&gt;" style="rounded=0;whiteSpace=wrap;html=1;" parent="1" vertex="1">
          <mxGeometry x="-320" y="695" width="150" height="40" as="geometry" />
        </mxCell>
        <mxCell id="qoyEa4kxbC41t2mxPIMF-28" value="&amp;nbsp;Name" style="ellipse;whiteSpace=wrap;html=1;" parent="1" vertex="1">
          <mxGeometry x="-550" y="520" width="150" height="40" as="geometry" />
        </mxCell>
        <mxCell id="qoyEa4kxbC41t2mxPIMF-29" value="Package ID" style="ellipse;whiteSpace=wrap;html=1;" parent="1" vertex="1">
          <mxGeometry x="-105" y="565" width="150" height="40" as="geometry" />
        </mxCell>
        <mxCell id="qoyEa4kxbC41t2mxPIMF-31" value="Price" style="ellipse;whiteSpace=wrap;html=1;" parent="1" vertex="1">
          <mxGeometry x="-442.5" y="870" width="150" height="40" as="geometry" />
        </mxCell>
        <mxCell id="qoyEa4kxbC41t2mxPIMF-32" value="Description" style="ellipse;whiteSpace=wrap;html=1;" parent="1" vertex="1">
          <mxGeometry x="-605" y="740" width="150" height="30" as="geometry" />
        </mxCell>
        <mxCell id="qoyEa4kxbC41t2mxPIMF-33" value="" style="endArrow=none;html=1;rounded=0;entryX=0.25;entryY=1;entryDx=0;entryDy=0;exitX=0.5;exitY=0;exitDx=0;exitDy=0;" parent="1" source="qoyEa4kxbC41t2mxPIMF-31" target="qoyEa4kxbC41t2mxPIMF-27" edge="1">
          <mxGeometry width="50" height="50" relative="1" as="geometry">
            <mxPoint x="-400" y="800" as="sourcePoint" />
            <mxPoint x="-350" y="750" as="targetPoint" />
          </mxGeometry>
        </mxCell>
        <mxCell id="qoyEa4kxbC41t2mxPIMF-34" value="" style="endArrow=none;html=1;rounded=0;entryX=0.25;entryY=0;entryDx=0;entryDy=0;exitX=0.5;exitY=1;exitDx=0;exitDy=0;" parent="1" source="qoyEa4kxbC41t2mxPIMF-28" target="qoyEa4kxbC41t2mxPIMF-27" edge="1">
          <mxGeometry width="50" height="50" relative="1" as="geometry">
            <mxPoint x="-380" y="710" as="sourcePoint" />
            <mxPoint x="-330" y="660" as="targetPoint" />
          </mxGeometry>
        </mxCell>
        <mxCell id="qoyEa4kxbC41t2mxPIMF-35" value="" style="endArrow=none;html=1;rounded=0;entryX=0;entryY=0.75;entryDx=0;entryDy=0;exitX=1;exitY=0.5;exitDx=0;exitDy=0;" parent="1" source="qoyEa4kxbC41t2mxPIMF-32" target="qoyEa4kxbC41t2mxPIMF-27" edge="1">
          <mxGeometry width="50" height="50" relative="1" as="geometry">
            <mxPoint x="-370" y="720" as="sourcePoint" />
            <mxPoint x="-320" y="670" as="targetPoint" />
          </mxGeometry>
        </mxCell>
        <mxCell id="qoyEa4kxbC41t2mxPIMF-36" value="" style="endArrow=none;html=1;rounded=0;entryX=0.5;entryY=1;entryDx=0;entryDy=0;exitX=0.75;exitY=0;exitDx=0;exitDy=0;" parent="1" source="qoyEa4kxbC41t2mxPIMF-27" target="qoyEa4kxbC41t2mxPIMF-29" edge="1">
          <mxGeometry width="50" height="50" relative="1" as="geometry">
            <mxPoint x="-360" y="730" as="sourcePoint" />
            <mxPoint x="-310" y="680" as="targetPoint" />
          </mxGeometry>
        </mxCell>
        <mxCell id="qoyEa4kxbC41t2mxPIMF-38" value="" style="endArrow=none;html=1;rounded=0;entryX=0.75;entryY=1;entryDx=0;entryDy=0;exitX=0.5;exitY=0;exitDx=0;exitDy=0;" parent="1" source="qoyEa4kxbC41t2mxPIMF-39" target="qoyEa4kxbC41t2mxPIMF-27" edge="1">
          <mxGeometry width="50" height="50" relative="1" as="geometry">
            <mxPoint x="-170" y="825" as="sourcePoint" />
            <mxPoint x="-120" y="775" as="targetPoint" />
          </mxGeometry>
        </mxCell>
        <mxCell id="qoyEa4kxbC41t2mxPIMF-39" value="Destination" style="ellipse;whiteSpace=wrap;html=1;" parent="1" vertex="1">
          <mxGeometry x="-220" y="880" width="150" height="40" as="geometry" />
        </mxCell>
        <mxCell id="qoyEa4kxbC41t2mxPIMF-40" value="&lt;b&gt;&lt;u style=&quot;&quot;&gt;Bookings&lt;/u&gt;&lt;/b&gt;" style="rounded=0;whiteSpace=wrap;html=1;" parent="1" vertex="1">
          <mxGeometry x="-310" y="165" width="170" height="35" as="geometry" />
        </mxCell>
        <mxCell id="qoyEa4kxbC41t2mxPIMF-41" value="&lt;b&gt;&lt;u&gt;Reviews&lt;/u&gt;&lt;/b&gt;" style="rounded=0;whiteSpace=wrap;html=1;" parent="1" vertex="1">
          <mxGeometry x="465" y="635" width="150" height="40" as="geometry" />
        </mxCell>
        <mxCell id="qoyEa4kxbC41t2mxPIMF-42" value="&lt;u&gt;&lt;b&gt;Payments&lt;/b&gt;&lt;/u&gt;" style="rounded=0;whiteSpace=wrap;html=1;" parent="1" vertex="1">
          <mxGeometry x="-310" y="-420" width="160" height="40" as="geometry" />
        </mxCell>
        <mxCell id="qoyEa4kxbC41t2mxPIMF-43" value="&lt;b&gt;&lt;u&gt;Employees&lt;/u&gt;&lt;/b&gt;" style="rounded=0;whiteSpace=wrap;html=1;" parent="1" vertex="1">
          <mxGeometry x="460" y="975" width="170" height="40" as="geometry" />
        </mxCell>
        <mxCell id="qoyEa4kxbC41t2mxPIMF-44" value="Booking Date" style="ellipse;whiteSpace=wrap;html=1;" parent="1" vertex="1">
          <mxGeometry x="-530" y="310" width="140" height="30" as="geometry" />
        </mxCell>
        <mxCell id="qoyEa4kxbC41t2mxPIMF-45" value="Number of Guests" style="ellipse;whiteSpace=wrap;html=1;" parent="1" vertex="1">
          <mxGeometry x="-105" y="320" width="140" height="30" as="geometry" />
        </mxCell>
        <mxCell id="qoyEa4kxbC41t2mxPIMF-46" value="Package ID" style="ellipse;whiteSpace=wrap;html=1;" parent="1" vertex="1">
          <mxGeometry x="-580" y="10" width="140" height="30" as="geometry" />
        </mxCell>
        <mxCell id="qoyEa4kxbC41t2mxPIMF-47" value="Booking ID" style="ellipse;whiteSpace=wrap;html=1;" parent="1" vertex="1">
          <mxGeometry x="-100" y="-20" width="140" height="30" as="geometry" />
        </mxCell>
        <mxCell id="qoyEa4kxbC41t2mxPIMF-48" value="Customer ID" style="ellipse;whiteSpace=wrap;html=1;" parent="1" vertex="1">
          <mxGeometry x="-460" y="-30" width="140" height="30" as="geometry" />
        </mxCell>
        <mxCell id="qoyEa4kxbC41t2mxPIMF-50" value="" style="endArrow=none;html=1;rounded=0;entryX=0.5;entryY=1;entryDx=0;entryDy=0;exitX=1;exitY=0;exitDx=0;exitDy=0;" parent="1" source="qoyEa4kxbC41t2mxPIMF-40" target="qoyEa4kxbC41t2mxPIMF-47" edge="1">
          <mxGeometry width="50" height="50" relative="1" as="geometry">
            <mxPoint x="-140" y="160" as="sourcePoint" />
            <mxPoint x="-250" y="100" as="targetPoint" />
          </mxGeometry>
        </mxCell>
        <mxCell id="qoyEa4kxbC41t2mxPIMF-51" value="" style="endArrow=none;html=1;rounded=0;entryX=0.5;entryY=1;entryDx=0;entryDy=0;exitX=0.25;exitY=0;exitDx=0;exitDy=0;" parent="1" source="qoyEa4kxbC41t2mxPIMF-40" target="qoyEa4kxbC41t2mxPIMF-48" edge="1">
          <mxGeometry width="50" height="50" relative="1" as="geometry">
            <mxPoint x="-270" y="160" as="sourcePoint" />
            <mxPoint x="-180" y="40" as="targetPoint" />
          </mxGeometry>
        </mxCell>
        <mxCell id="qoyEa4kxbC41t2mxPIMF-53" value="" style="endArrow=none;html=1;rounded=0;entryX=1;entryY=1;entryDx=0;entryDy=0;exitX=0.5;exitY=0;exitDx=0;exitDy=0;" parent="1" source="qoyEa4kxbC41t2mxPIMF-45" target="qoyEa4kxbC41t2mxPIMF-40" edge="1">
          <mxGeometry width="50" height="50" relative="1" as="geometry">
            <mxPoint x="-195" y="195" as="sourcePoint" />
            <mxPoint x="-160" y="60" as="targetPoint" />
          </mxGeometry>
        </mxCell>
        <mxCell id="qoyEa4kxbC41t2mxPIMF-54" value="" style="endArrow=none;html=1;rounded=0;entryX=0;entryY=1;entryDx=0;entryDy=0;exitX=0.5;exitY=0;exitDx=0;exitDy=0;" parent="1" source="qoyEa4kxbC41t2mxPIMF-44" target="qoyEa4kxbC41t2mxPIMF-40" edge="1">
          <mxGeometry width="50" height="50" relative="1" as="geometry">
            <mxPoint x="-420" y="390" as="sourcePoint" />
            <mxPoint x="-370" y="340" as="targetPoint" />
          </mxGeometry>
        </mxCell>
        <mxCell id="qoyEa4kxbC41t2mxPIMF-55" value="" style="endArrow=none;html=1;rounded=0;entryX=0;entryY=0;entryDx=0;entryDy=0;exitX=0.5;exitY=1;exitDx=0;exitDy=0;" parent="1" source="qoyEa4kxbC41t2mxPIMF-46" target="qoyEa4kxbC41t2mxPIMF-40" edge="1">
          <mxGeometry width="50" height="50" relative="1" as="geometry">
            <mxPoint x="-430" y="275" as="sourcePoint" />
            <mxPoint x="-257" y="210" as="targetPoint" />
          </mxGeometry>
        </mxCell>
        <mxCell id="qoyEa4kxbC41t2mxPIMF-64" value="Total Price" style="ellipse;whiteSpace=wrap;html=1;" parent="1" vertex="1">
          <mxGeometry x="10" y="265" width="140" height="20" as="geometry" />
        </mxCell>
        <mxCell id="qoyEa4kxbC41t2mxPIMF-65" value="" style="endArrow=none;html=1;rounded=0;exitX=1;exitY=0.75;exitDx=0;exitDy=0;entryX=0.346;entryY=0.092;entryDx=0;entryDy=0;entryPerimeter=0;" parent="1" source="qoyEa4kxbC41t2mxPIMF-40" target="qoyEa4kxbC41t2mxPIMF-64" edge="1">
          <mxGeometry width="50" height="50" relative="1" as="geometry">
            <mxPoint x="-20" y="200" as="sourcePoint" />
            <mxPoint x="70" y="230" as="targetPoint" />
          </mxGeometry>
        </mxCell>
        <mxCell id="qoyEa4kxbC41t2mxPIMF-66" value="Payment Date" style="ellipse;whiteSpace=wrap;html=1;" parent="1" vertex="1">
          <mxGeometry x="-263" y="-580" width="145" height="30" as="geometry" />
        </mxCell>
        <mxCell id="qoyEa4kxbC41t2mxPIMF-67" value="Payment ID" style="ellipse;whiteSpace=wrap;html=1;" parent="1" vertex="1">
          <mxGeometry x="-545" y="-470" width="145" height="30" as="geometry" />
        </mxCell>
        <mxCell id="qoyEa4kxbC41t2mxPIMF-68" value="Amount" style="ellipse;whiteSpace=wrap;html=1;" parent="1" vertex="1">
          <mxGeometry x="-20" y="-440" width="145" height="30" as="geometry" />
        </mxCell>
        <mxCell id="qoyEa4kxbC41t2mxPIMF-69" value="Method" style="ellipse;whiteSpace=wrap;html=1;" parent="1" vertex="1">
          <mxGeometry x="-118" y="-540" width="145" height="30" as="geometry" />
        </mxCell>
        <mxCell id="qoyEa4kxbC41t2mxPIMF-70" value="Booking ID" style="ellipse;whiteSpace=wrap;html=1;" parent="1" vertex="1">
          <mxGeometry x="-440" y="-560" width="145" height="30" as="geometry" />
        </mxCell>
        <mxCell id="qoyEa4kxbC41t2mxPIMF-72" value="" style="endArrow=none;html=1;rounded=0;entryX=0;entryY=0.5;entryDx=0;entryDy=0;exitX=1;exitY=0.75;exitDx=0;exitDy=0;" parent="1" source="qoyEa4kxbC41t2mxPIMF-42" target="qoyEa4kxbC41t2mxPIMF-68" edge="1">
          <mxGeometry width="50" height="50" relative="1" as="geometry">
            <mxPoint x="-102.5" y="-300" as="sourcePoint" />
            <mxPoint x="-52.5" y="-350" as="targetPoint" />
          </mxGeometry>
        </mxCell>
        <mxCell id="qoyEa4kxbC41t2mxPIMF-73" value="" style="endArrow=none;html=1;rounded=0;entryX=0.5;entryY=1;entryDx=0;entryDy=0;exitX=1;exitY=0.5;exitDx=0;exitDy=0;" parent="1" source="qoyEa4kxbC41t2mxPIMF-42" target="qoyEa4kxbC41t2mxPIMF-69" edge="1">
          <mxGeometry width="50" height="50" relative="1" as="geometry">
            <mxPoint x="-70" y="-440" as="sourcePoint" />
            <mxPoint x="-20" y="-490" as="targetPoint" />
          </mxGeometry>
        </mxCell>
        <mxCell id="qoyEa4kxbC41t2mxPIMF-74" value="" style="endArrow=none;html=1;rounded=0;entryX=0.5;entryY=1;entryDx=0;entryDy=0;exitX=0.75;exitY=0;exitDx=0;exitDy=0;" parent="1" source="qoyEa4kxbC41t2mxPIMF-42" target="qoyEa4kxbC41t2mxPIMF-66" edge="1">
          <mxGeometry width="50" height="50" relative="1" as="geometry">
            <mxPoint x="-140" y="-480" as="sourcePoint" />
            <mxPoint x="-90" y="-530" as="targetPoint" />
          </mxGeometry>
        </mxCell>
        <mxCell id="qoyEa4kxbC41t2mxPIMF-75" value="" style="endArrow=none;html=1;rounded=0;entryX=0.25;entryY=0;entryDx=0;entryDy=0;exitX=0.5;exitY=1;exitDx=0;exitDy=0;" parent="1" source="qoyEa4kxbC41t2mxPIMF-70" target="qoyEa4kxbC41t2mxPIMF-42" edge="1">
          <mxGeometry width="50" height="50" relative="1" as="geometry">
            <mxPoint x="-350" y="-430" as="sourcePoint" />
            <mxPoint x="-300" y="-480" as="targetPoint" />
          </mxGeometry>
        </mxCell>
        <mxCell id="qoyEa4kxbC41t2mxPIMF-76" value="" style="endArrow=none;html=1;rounded=0;entryX=0;entryY=0.25;entryDx=0;entryDy=0;exitX=1;exitY=0.5;exitDx=0;exitDy=0;" parent="1" source="qoyEa4kxbC41t2mxPIMF-67" target="qoyEa4kxbC41t2mxPIMF-42" edge="1">
          <mxGeometry width="50" height="50" relative="1" as="geometry">
            <mxPoint x="-340" y="-420" as="sourcePoint" />
            <mxPoint x="-290" y="-470" as="targetPoint" />
          </mxGeometry>
        </mxCell>
        <mxCell id="qoyEa4kxbC41t2mxPIMF-81" value="Date" style="ellipse;whiteSpace=wrap;html=1;" parent="1" vertex="1">
          <mxGeometry x="200" y="520" width="120" height="20" as="geometry" />
        </mxCell>
        <mxCell id="qoyEa4kxbC41t2mxPIMF-82" value="Review ID" style="ellipse;whiteSpace=wrap;html=1;" parent="1" vertex="1">
          <mxGeometry x="710" y="460" width="120" height="20" as="geometry" />
        </mxCell>
        <mxCell id="qoyEa4kxbC41t2mxPIMF-83" value="Booking&amp;nbsp; ID&amp;nbsp;" style="ellipse;whiteSpace=wrap;html=1;" parent="1" vertex="1">
          <mxGeometry x="780" y="615" width="120" height="20" as="geometry" />
        </mxCell>
        <mxCell id="qoyEa4kxbC41t2mxPIMF-84" value="Review" style="ellipse;whiteSpace=wrap;html=1;" parent="1" vertex="1">
          <mxGeometry x="790" y="710" width="120" height="20" as="geometry" />
        </mxCell>
        <mxCell id="qoyEa4kxbC41t2mxPIMF-86" value="Rating" style="ellipse;whiteSpace=wrap;html=1;" parent="1" vertex="1">
          <mxGeometry x="205" y="595" width="120" height="20" as="geometry" />
        </mxCell>
        <mxCell id="qoyEa4kxbC41t2mxPIMF-87" value="Customer ID" style="ellipse;whiteSpace=wrap;html=1;" parent="1" vertex="1">
          <mxGeometry x="750" y="540" width="120" height="20" as="geometry" />
        </mxCell>
        <mxCell id="qoyEa4kxbC41t2mxPIMF-88" value="" style="endArrow=none;html=1;rounded=0;entryX=1;entryY=1;entryDx=0;entryDy=0;exitX=0;exitY=0.5;exitDx=0;exitDy=0;" parent="1" source="qoyEa4kxbC41t2mxPIMF-41" target="qoyEa4kxbC41t2mxPIMF-86" edge="1">
          <mxGeometry width="50" height="50" relative="1" as="geometry">
            <mxPoint x="460" y="655" as="sourcePoint" />
            <mxPoint x="720" y="740" as="targetPoint" />
          </mxGeometry>
        </mxCell>
        <mxCell id="qoyEa4kxbC41t2mxPIMF-89" value="" style="endArrow=none;html=1;rounded=0;exitX=1;exitY=1;exitDx=0;exitDy=0;entryX=0.125;entryY=0.003;entryDx=0;entryDy=0;entryPerimeter=0;" parent="1" source="qoyEa4kxbC41t2mxPIMF-81" target="qoyEa4kxbC41t2mxPIMF-41" edge="1">
          <mxGeometry width="50" height="50" relative="1" as="geometry">
            <mxPoint x="585" y="760" as="sourcePoint" />
            <mxPoint x="470" y="620" as="targetPoint" />
          </mxGeometry>
        </mxCell>
        <mxCell id="qoyEa4kxbC41t2mxPIMF-90" value="" style="endArrow=none;html=1;rounded=0;entryX=0.5;entryY=1;entryDx=0;entryDy=0;exitX=0.75;exitY=0;exitDx=0;exitDy=0;" parent="1" source="qoyEa4kxbC41t2mxPIMF-41" target="qoyEa4kxbC41t2mxPIMF-82" edge="1">
          <mxGeometry width="50" height="50" relative="1" as="geometry">
            <mxPoint x="530" y="650" as="sourcePoint" />
            <mxPoint x="580" y="600" as="targetPoint" />
          </mxGeometry>
        </mxCell>
        <mxCell id="qoyEa4kxbC41t2mxPIMF-91" value="" style="endArrow=none;html=1;rounded=0;entryX=0.5;entryY=1;entryDx=0;entryDy=0;exitX=1;exitY=0;exitDx=0;exitDy=0;" parent="1" source="qoyEa4kxbC41t2mxPIMF-41" target="qoyEa4kxbC41t2mxPIMF-87" edge="1">
          <mxGeometry width="50" height="50" relative="1" as="geometry">
            <mxPoint x="540" y="660" as="sourcePoint" />
            <mxPoint x="590" y="610" as="targetPoint" />
          </mxGeometry>
        </mxCell>
        <mxCell id="qoyEa4kxbC41t2mxPIMF-92" value="" style="endArrow=none;html=1;rounded=0;entryX=0;entryY=0.5;entryDx=0;entryDy=0;exitX=1;exitY=0.5;exitDx=0;exitDy=0;" parent="1" source="qoyEa4kxbC41t2mxPIMF-41" target="qoyEa4kxbC41t2mxPIMF-83" edge="1">
          <mxGeometry width="50" height="50" relative="1" as="geometry">
            <mxPoint x="550" y="670" as="sourcePoint" />
            <mxPoint x="600" y="620" as="targetPoint" />
          </mxGeometry>
        </mxCell>
        <mxCell id="qoyEa4kxbC41t2mxPIMF-93" value="" style="endArrow=none;html=1;rounded=0;entryX=1;entryY=1;entryDx=0;entryDy=0;exitX=0;exitY=0.5;exitDx=0;exitDy=0;" parent="1" source="qoyEa4kxbC41t2mxPIMF-84" target="qoyEa4kxbC41t2mxPIMF-41" edge="1">
          <mxGeometry width="50" height="50" relative="1" as="geometry">
            <mxPoint x="730" y="755" as="sourcePoint" />
            <mxPoint x="780" y="705" as="targetPoint" />
          </mxGeometry>
        </mxCell>
        <mxCell id="qoyEa4kxbC41t2mxPIMF-94" value="Employee ID" style="ellipse;whiteSpace=wrap;html=1;" parent="1" vertex="1">
          <mxGeometry x="720" y="920" width="170" height="40" as="geometry" />
        </mxCell>
        <mxCell id="qoyEa4kxbC41t2mxPIMF-95" value="Name" style="ellipse;whiteSpace=wrap;html=1;" parent="1" vertex="1">
          <mxGeometry x="760" y="1060" width="170" height="40" as="geometry" />
        </mxCell>
        <mxCell id="qoyEa4kxbC41t2mxPIMF-96" value="Role" style="ellipse;whiteSpace=wrap;html=1;" parent="1" vertex="1">
          <mxGeometry x="160" y="920" width="170" height="40" as="geometry" />
        </mxCell>
        <mxCell id="qoyEa4kxbC41t2mxPIMF-97" value="Email" style="ellipse;whiteSpace=wrap;html=1;" parent="1" vertex="1">
          <mxGeometry x="150" y="1010" width="170" height="40" as="geometry" />
        </mxCell>
        <mxCell id="qoyEa4kxbC41t2mxPIMF-98" value="Phone Number" style="ellipse;whiteSpace=wrap;html=1;" parent="1" vertex="1">
          <mxGeometry x="225" y="1120" width="170" height="40" as="geometry" />
        </mxCell>
        <mxCell id="qoyEa4kxbC41t2mxPIMF-99" value="" style="endArrow=none;html=1;rounded=0;entryX=0.25;entryY=1;entryDx=0;entryDy=0;exitX=0.5;exitY=0;exitDx=0;exitDy=0;" parent="1" source="qoyEa4kxbC41t2mxPIMF-98" target="qoyEa4kxbC41t2mxPIMF-43" edge="1">
          <mxGeometry width="50" height="50" relative="1" as="geometry">
            <mxPoint x="380" y="1125" as="sourcePoint" />
            <mxPoint x="480" y="1040" as="targetPoint" />
          </mxGeometry>
        </mxCell>
        <mxCell id="qoyEa4kxbC41t2mxPIMF-100" value="" style="endArrow=none;html=1;rounded=0;entryX=0;entryY=1;entryDx=0;entryDy=0;exitX=1;exitY=0.5;exitDx=0;exitDy=0;" parent="1" source="qoyEa4kxbC41t2mxPIMF-97" target="qoyEa4kxbC41t2mxPIMF-43" edge="1">
          <mxGeometry width="50" height="50" relative="1" as="geometry">
            <mxPoint x="330" y="1027.5" as="sourcePoint" />
            <mxPoint x="380" y="977.5" as="targetPoint" />
          </mxGeometry>
        </mxCell>
        <mxCell id="qoyEa4kxbC41t2mxPIMF-101" value="" style="endArrow=none;html=1;rounded=0;entryX=0;entryY=0.5;entryDx=0;entryDy=0;exitX=1;exitY=0.5;exitDx=0;exitDy=0;" parent="1" source="qoyEa4kxbC41t2mxPIMF-96" target="qoyEa4kxbC41t2mxPIMF-43" edge="1">
          <mxGeometry width="50" height="50" relative="1" as="geometry">
            <mxPoint x="300" y="940" as="sourcePoint" />
            <mxPoint x="350" y="890" as="targetPoint" />
          </mxGeometry>
        </mxCell>
        <mxCell id="qoyEa4kxbC41t2mxPIMF-102" value="" style="endArrow=none;html=1;rounded=0;entryX=0.5;entryY=1;entryDx=0;entryDy=0;exitX=0.912;exitY=0.034;exitDx=0;exitDy=0;exitPerimeter=0;" parent="1" source="qoyEa4kxbC41t2mxPIMF-43" target="qoyEa4kxbC41t2mxPIMF-94" edge="1">
          <mxGeometry width="50" height="50" relative="1" as="geometry">
            <mxPoint x="540" y="970" as="sourcePoint" />
            <mxPoint x="520" y="810" as="targetPoint" />
          </mxGeometry>
        </mxCell>
        <mxCell id="qoyEa4kxbC41t2mxPIMF-103" value="" style="endArrow=none;html=1;rounded=0;exitX=0;exitY=0.5;exitDx=0;exitDy=0;entryX=1;entryY=0.75;entryDx=0;entryDy=0;" parent="1" source="qoyEa4kxbC41t2mxPIMF-95" target="qoyEa4kxbC41t2mxPIMF-43" edge="1">
          <mxGeometry width="50" height="50" relative="1" as="geometry">
            <mxPoint x="330" y="850" as="sourcePoint" />
            <mxPoint x="380" y="800" as="targetPoint" />
          </mxGeometry>
        </mxCell>
        <mxCell id="qoyEa4kxbC41t2mxPIMF-105" value="&lt;b&gt;provides &lt;br&gt;booking details&lt;/b&gt;" style="rhombus;whiteSpace=wrap;html=1;" parent="1" vertex="1">
          <mxGeometry x="-300" y="410" width="120" height="100" as="geometry" />
        </mxCell>
        <mxCell id="qoyEa4kxbC41t2mxPIMF-106" value="Makes" style="rhombus;whiteSpace=wrap;html=1;" parent="1" vertex="1">
          <mxGeometry x="160" y="135" width="80" height="80" as="geometry" />
        </mxCell>
        <mxCell id="qoyEa4kxbC41t2mxPIMF-107" value="" style="endArrow=none;html=1;rounded=0;exitX=1;exitY=0.5;exitDx=0;exitDy=0;entryX=0.007;entryY=0.401;entryDx=0;entryDy=0;entryPerimeter=0;" parent="1" source="qoyEa4kxbC41t2mxPIMF-106" target="qoyEa4kxbC41t2mxPIMF-14" edge="1">
          <mxGeometry width="50" height="50" relative="1" as="geometry">
            <mxPoint x="270" y="190" as="sourcePoint" />
            <mxPoint x="460" y="180" as="targetPoint" />
          </mxGeometry>
        </mxCell>
        <mxCell id="qoyEa4kxbC41t2mxPIMF-109" value="" style="endArrow=none;html=1;rounded=0;exitX=1;exitY=0.25;exitDx=0;exitDy=0;entryX=0;entryY=0.5;entryDx=0;entryDy=0;" parent="1" source="qoyEa4kxbC41t2mxPIMF-40" target="qoyEa4kxbC41t2mxPIMF-106" edge="1">
          <mxGeometry width="50" height="50" relative="1" as="geometry">
            <mxPoint x="10" y="190" as="sourcePoint" />
            <mxPoint x="60" y="140" as="targetPoint" />
          </mxGeometry>
        </mxCell>
        <mxCell id="qoyEa4kxbC41t2mxPIMF-111" value="1" style="text;html=1;align=center;verticalAlign=middle;resizable=0;points=[];autosize=1;strokeColor=none;fillColor=none;" parent="1" vertex="1">
          <mxGeometry x="435" y="174" width="30" height="30" as="geometry" />
        </mxCell>
        <mxCell id="qoyEa4kxbC41t2mxPIMF-112" value="" style="endArrow=none;html=1;rounded=0;exitX=1.006;exitY=0.417;exitDx=0;exitDy=0;exitPerimeter=0;entryX=0.042;entryY=0.544;entryDx=0;entryDy=0;entryPerimeter=0;" parent="1" source="qoyEa4kxbC41t2mxPIMF-40" target="qoyEa4kxbC41t2mxPIMF-106" edge="1">
          <mxGeometry width="50" height="50" relative="1" as="geometry">
            <mxPoint x="-130" y="184" as="sourcePoint" />
            <mxPoint x="160" y="180" as="targetPoint" />
          </mxGeometry>
        </mxCell>
        <mxCell id="qoyEa4kxbC41t2mxPIMF-113" value="M" style="text;html=1;align=center;verticalAlign=middle;resizable=0;points=[];autosize=1;strokeColor=none;fillColor=none;" parent="1" vertex="1">
          <mxGeometry x="-143" y="152" width="30" height="30" as="geometry" />
        </mxCell>
        <mxCell id="qoyEa4kxbC41t2mxPIMF-114" value="" style="endArrow=none;html=1;rounded=0;exitX=0.474;exitY=0.016;exitDx=0;exitDy=0;entryX=0.39;entryY=0.97;entryDx=0;entryDy=0;entryPerimeter=0;exitPerimeter=0;" parent="1" source="qoyEa4kxbC41t2mxPIMF-105" target="qoyEa4kxbC41t2mxPIMF-40" edge="1">
          <mxGeometry width="50" height="50" relative="1" as="geometry">
            <mxPoint x="-330" y="370" as="sourcePoint" />
            <mxPoint x="-250" y="250" as="targetPoint" />
          </mxGeometry>
        </mxCell>
        <mxCell id="qoyEa4kxbC41t2mxPIMF-115" value="" style="endArrow=none;html=1;rounded=0;exitX=0.538;exitY=0.006;exitDx=0;exitDy=0;exitPerimeter=0;" parent="1" source="qoyEa4kxbC41t2mxPIMF-27" target="qoyEa4kxbC41t2mxPIMF-105" edge="1">
          <mxGeometry width="50" height="50" relative="1" as="geometry">
            <mxPoint x="-240" y="690" as="sourcePoint" />
            <mxPoint x="-190" y="530" as="targetPoint" />
          </mxGeometry>
        </mxCell>
        <mxCell id="qoyEa4kxbC41t2mxPIMF-117" value="" style="endArrow=none;html=1;rounded=0;entryX=0.418;entryY=1.008;entryDx=0;entryDy=0;entryPerimeter=0;" parent="1" source="qoyEa4kxbC41t2mxPIMF-105" target="qoyEa4kxbC41t2mxPIMF-40" edge="1">
          <mxGeometry width="50" height="50" relative="1" as="geometry">
            <mxPoint x="-300" y="400" as="sourcePoint" />
            <mxPoint x="-250" y="350" as="targetPoint" />
          </mxGeometry>
        </mxCell>
        <mxCell id="qoyEa4kxbC41t2mxPIMF-118" value="1" style="text;html=1;align=center;verticalAlign=middle;resizable=0;points=[];autosize=1;strokeColor=none;fillColor=none;" parent="1" vertex="1">
          <mxGeometry x="-245" y="668" width="30" height="30" as="geometry" />
        </mxCell>
        <mxCell id="qoyEa4kxbC41t2mxPIMF-119" value="M" style="text;html=1;align=center;verticalAlign=middle;resizable=0;points=[];autosize=1;strokeColor=none;fillColor=none;" parent="1" vertex="1">
          <mxGeometry x="-244" y="195" width="30" height="30" as="geometry" />
        </mxCell>
        <mxCell id="qoyEa4kxbC41t2mxPIMF-120" value="Lead to" style="rhombus;whiteSpace=wrap;html=1;" parent="1" vertex="1">
          <mxGeometry x="-270" y="-180" width="80" height="80" as="geometry" />
        </mxCell>
        <mxCell id="qoyEa4kxbC41t2mxPIMF-121" value="" style="endArrow=none;html=1;rounded=0;entryX=0.5;entryY=1;entryDx=0;entryDy=0;exitX=0.5;exitY=0;exitDx=0;exitDy=0;" parent="1" source="qoyEa4kxbC41t2mxPIMF-120" target="qoyEa4kxbC41t2mxPIMF-42" edge="1">
          <mxGeometry width="50" height="50" relative="1" as="geometry">
            <mxPoint x="-320" y="-270" as="sourcePoint" />
            <mxPoint x="-270" y="-320" as="targetPoint" />
          </mxGeometry>
        </mxCell>
        <mxCell id="qoyEa4kxbC41t2mxPIMF-122" value="" style="endArrow=none;html=1;rounded=0;entryX=0.5;entryY=1;entryDx=0;entryDy=0;exitX=0.473;exitY=0.019;exitDx=0;exitDy=0;exitPerimeter=0;" parent="1" source="qoyEa4kxbC41t2mxPIMF-40" target="qoyEa4kxbC41t2mxPIMF-120" edge="1">
          <mxGeometry width="50" height="50" relative="1" as="geometry">
            <mxPoint x="-230" y="160" as="sourcePoint" />
            <mxPoint x="-210" y="-20" as="targetPoint" />
          </mxGeometry>
        </mxCell>
        <mxCell id="qoyEa4kxbC41t2mxPIMF-123" value="1" style="text;html=1;align=center;verticalAlign=middle;resizable=0;points=[];autosize=1;strokeColor=none;fillColor=none;" parent="1" vertex="1">
          <mxGeometry x="-231" y="-378" width="30" height="30" as="geometry" />
        </mxCell>
        <mxCell id="qoyEa4kxbC41t2mxPIMF-124" value="1" style="text;html=1;align=center;verticalAlign=middle;resizable=0;points=[];autosize=1;strokeColor=none;fillColor=none;" parent="1" vertex="1">
          <mxGeometry x="-233" y="135" width="30" height="30" as="geometry" />
        </mxCell>
        <mxCell id="qoyEa4kxbC41t2mxPIMF-125" value="Leaves" style="rhombus;whiteSpace=wrap;html=1;" parent="1" vertex="1">
          <mxGeometry x="485" y="380" width="80" height="80" as="geometry" />
        </mxCell>
        <mxCell id="qoyEa4kxbC41t2mxPIMF-126" value="" style="endArrow=none;html=1;rounded=0;entryX=0.415;entryY=0.903;entryDx=0;entryDy=0;entryPerimeter=0;exitX=0.354;exitY=0.013;exitDx=0;exitDy=0;exitPerimeter=0;" parent="1" source="qoyEa4kxbC41t2mxPIMF-41" target="qoyEa4kxbC41t2mxPIMF-125" edge="1">
          <mxGeometry width="50" height="50" relative="1" as="geometry">
            <mxPoint x="510" y="630" as="sourcePoint" />
            <mxPoint x="470" y="500" as="targetPoint" />
          </mxGeometry>
        </mxCell>
        <mxCell id="qoyEa4kxbC41t2mxPIMF-127" value="" style="endArrow=none;html=1;rounded=0;entryX=0.5;entryY=1;entryDx=0;entryDy=0;exitX=0.406;exitY=0.001;exitDx=0;exitDy=0;exitPerimeter=0;" parent="1" source="qoyEa4kxbC41t2mxPIMF-41" target="qoyEa4kxbC41t2mxPIMF-125" edge="1">
          <mxGeometry width="50" height="50" relative="1" as="geometry">
            <mxPoint x="430" y="560" as="sourcePoint" />
            <mxPoint x="480" y="510" as="targetPoint" />
          </mxGeometry>
        </mxCell>
        <mxCell id="qoyEa4kxbC41t2mxPIMF-128" value="" style="endArrow=none;html=1;rounded=0;exitX=0.5;exitY=0;exitDx=0;exitDy=0;entryX=0.45;entryY=0.961;entryDx=0;entryDy=0;entryPerimeter=0;" parent="1" source="qoyEa4kxbC41t2mxPIMF-125" target="qoyEa4kxbC41t2mxPIMF-14" edge="1">
          <mxGeometry width="50" height="50" relative="1" as="geometry">
            <mxPoint x="470" y="290" as="sourcePoint" />
            <mxPoint x="520" y="200" as="targetPoint" />
          </mxGeometry>
        </mxCell>
        <mxCell id="qoyEa4kxbC41t2mxPIMF-129" value="M" style="text;html=1;align=center;verticalAlign=middle;resizable=0;points=[];autosize=1;strokeColor=none;fillColor=none;" parent="1" vertex="1">
          <mxGeometry x="489" y="607" width="30" height="30" as="geometry" />
        </mxCell>
        <mxCell id="qoyEa4kxbC41t2mxPIMF-130" value="1" style="text;html=1;align=center;verticalAlign=middle;resizable=0;points=[];autosize=1;strokeColor=none;fillColor=none;" parent="1" vertex="1">
          <mxGeometry x="519" y="198" width="30" height="30" as="geometry" />
        </mxCell>
        <mxCell id="qoyEa4kxbC41t2mxPIMF-135" value="1" style="text;html=1;align=center;verticalAlign=middle;resizable=0;points=[];autosize=1;strokeColor=none;fillColor=none;" parent="1" vertex="1">
          <mxGeometry x="535" y="949" width="30" height="30" as="geometry" />
        </mxCell>
        <mxCell id="qoyEa4kxbC41t2mxPIMF-136" value="M" style="text;html=1;align=center;verticalAlign=middle;resizable=0;points=[];autosize=1;strokeColor=none;fillColor=none;" parent="1" vertex="1">
          <mxGeometry x="-342" y="155" width="30" height="30" as="geometry" />
        </mxCell>
        <mxCell id="X0z4DQI1TNPDOcEbOAfK-3" value="can" style="rhombus;whiteSpace=wrap;html=1;" parent="1" vertex="1">
          <mxGeometry x="500" y="780" width="80" height="80" as="geometry" />
        </mxCell>
        <mxCell id="X0z4DQI1TNPDOcEbOAfK-4" value="" style="endArrow=none;html=1;rounded=0;entryX=0.489;entryY=0.999;entryDx=0;entryDy=0;entryPerimeter=0;exitX=0.477;exitY=0.033;exitDx=0;exitDy=0;exitPerimeter=0;" parent="1" source="X0z4DQI1TNPDOcEbOAfK-3" target="qoyEa4kxbC41t2mxPIMF-41" edge="1">
          <mxGeometry width="50" height="50" relative="1" as="geometry">
            <mxPoint x="530" y="770" as="sourcePoint" />
            <mxPoint x="539" y="698" as="targetPoint" />
          </mxGeometry>
        </mxCell>
        <mxCell id="X0z4DQI1TNPDOcEbOAfK-6" value="" style="endArrow=none;html=1;rounded=0;entryX=0.525;entryY=0.025;entryDx=0;entryDy=0;entryPerimeter=0;exitX=0.509;exitY=1.017;exitDx=0;exitDy=0;exitPerimeter=0;" parent="1" source="qoyEa4kxbC41t2mxPIMF-41" target="X0z4DQI1TNPDOcEbOAfK-3" edge="1">
          <mxGeometry width="50" height="50" relative="1" as="geometry">
            <mxPoint x="499" y="758" as="sourcePoint" />
            <mxPoint x="550" y="770" as="targetPoint" />
          </mxGeometry>
        </mxCell>
        <mxCell id="X0z4DQI1TNPDOcEbOAfK-7" value="" style="endArrow=none;html=1;rounded=0;entryX=0.5;entryY=1;entryDx=0;entryDy=0;exitX=0.469;exitY=0.042;exitDx=0;exitDy=0;exitPerimeter=0;" parent="1" source="qoyEa4kxbC41t2mxPIMF-43" target="X0z4DQI1TNPDOcEbOAfK-3" edge="1">
          <mxGeometry width="50" height="50" relative="1" as="geometry">
            <mxPoint x="510" y="930" as="sourcePoint" />
            <mxPoint x="560" y="880" as="targetPoint" />
          </mxGeometry>
        </mxCell>
        <mxCell id="X0z4DQI1TNPDOcEbOAfK-8" value="M" style="text;html=1;align=center;verticalAlign=middle;resizable=0;points=[];autosize=1;strokeColor=none;fillColor=none;" parent="1" vertex="1">
          <mxGeometry x="535" y="672" width="30" height="30" as="geometry" />
        </mxCell>
      </root>
    </mxGraphModel>
  </diagram>
</mxfile>
